<?xml version="1.0" encoding="UTF-8" standalone="no"?>
<svg
   width="120"
   height="200"
   version="1.1"
   id="svg30"
   xmlns="http://www.w3.org/2000/svg"
   xmlns:svg="http://www.w3.org/2000/svg">
  <defs
     id="defs34" />
  <linearGradient
     id="s"
     gradientUnits="userSpaceOnUse"
     x1="114"
     x2="282"
     gradientTransform="matrix(0.28899922,0,0,0.28899922,-9.1504833,-15.599691)">
    <stop
       offset="0"
       stop-color="#666"
       id="stop2" />
    <stop
       offset=".5"
       stop-color="#CCC"
       id="stop4" />
    <stop
       offset="1"
       stop-color="#666"
       id="stop6" />
  </linearGradient>
  <linearGradient
     id="i"
     gradientUnits="userSpaceOnUse"
     x1="148"
     x2="248"
     gradientTransform="matrix(0.28899922,0,0,0.28899922,-9.1504833,-15.599691)">
    <stop
       offset="0"
       stop-color="#000"
       id="stop9" />
    <stop
       offset=".5"
       stop-color="#555"
       id="stop11" />
    <stop
       offset="1"
       stop-color="#000"
       id="stop13" />
  </linearGradient>
  <path
     fill="url(#s)"
     d="M 33.621401,127.16592 V 47.980132 q 0.866997,-1.73399 1.733995,-2.02299 l 3.75699,-2.88999 q 2.600993,-2.023 0,-8.09198 L 34.777397,23.126204 q -0.866997,-1.733996 0,-4.334989 l 5.201986,-8.380977 q 1.444996,-1.444996 2.889993,-1.444996 h 10.403969 q 1.445,0 2.88999,1.444996 l 5.20199,8.380977 q 0.867,2.600993 0,4.334989 l -4.33499,11.848968 q -2.60099,6.06898 0,8.09198 l 3.75699,2.88999 q 0.867,0.289 1.734,2.02299 v 79.185788 m -38.725898,-0.578 h 48.551868 v 4.04599 H 23.795427"
     id="path16"
     style="fill:url(#s);stroke-width:0.288999" />
  <path
     stroke="#888888"
     d="M 23.795427,126.58792 H 72.347295"
     id="path18"
     style="stroke-width:0.288999" />
  <path
     fill="url(#i)"
     d="m 33.621401,47.980132 h 28.899924 v 4.91299 H 33.621401 m 0,19.94095 h 28.899924 v 4.91298 H 33.621401"
     id="path20"
     style="fill:url(#i);stroke-width:0.288999" />
  <rect
     x="9.9234648"
     y="130.63391"
     width="76.295792"
     height="69.366089"
     rx="7.5139794"
     id="rect22"
     style="stroke-width:0.2585" />
  <text
     font-size="13.872px"
     font-family="sans-serif"
     x="71.769295"
     y="39.310162"
     id="text28"
     style="stroke-width:0.288999">EMS1<tspan
   x="71.769295"
   y="68.210083"
   id="tspan24"
   style="stroke-width:0.288999">EMS2</tspan><tspan
   x="71.769295"
   y="100"
   id="tspan26"
   style="stroke-width:0.288999">+12V</tspan></text>
</svg>
